<svg xmlns="http://www.w3.org/2000/svg" width="100" height="100" viewBox="0 0 100 100"><path fill="#E2574C" d="M50 0c27.614 0 50 22.386 50 50s-22.386 50-50 50S0 77.614 0 50 22.386 0 50 0z"/><path fill="#324D5B" d="M.645 42A50.33 50.33 0 0 0 0 50a49.772 49.772 0 0 0 6.13 24h87.74A49.772 49.772 0 0 0 100 50a50.33 50.33 0 0 0-.645-8H.645z"/><path fill="#475F6C" d="M8.57 78a50.18 50.18 0 0 0 21.812 18H69.62a50.19 50.19 0 0 0 21.81-18H8.57z"/><path fill="#3E5765" d="M65 42L45 74h18l20-32H65zm-16 0L29 74h8l20-32h-8z"/><path fill="#FAFAFA" d="M37 37v10L27 63l-1-10 9-16h2z"/><path fill="#EDEDED" d="M21 37h16L27 53H11l10-16z"/><path fill="#BEBEBE" d="M27 53H11v10h16V53z"/><path fill="#FAFAFA" d="M69 37v10L59 63l-1-10 9-16h2z"/><path fill="#EDEDED" d="M53 37h16L59 53H43l10-16z"/><path fill="#BEBEBE" d="M59 53H43v10h16V53z"/><path fill="#7D8D95" d="M21 56.757A2.348 2.348 0 0 0 19.25 56c-1.242 0-2.25.896-2.25 2s1.008 2 2.25 2c.71 0 1.337-.3 1.75-.756-.58-.186-1-.666-1-1.244s.42-1.06 1-1.243zM52 58c0-.578.42-1.06 1-1.243A2.344 2.344 0 0 0 51.25 56c-1.242 0-2.25.896-2.25 2s1.008 2 2.25 2c.71 0 1.337-.3 1.75-.756-.58-.185-1-.666-1-1.244zm10.64-19H55.91a1.46 1.46 0 0 0-1.237.672l-6.548 9.178c-.596.94.1 2.15 1.237 2.15h6.727a1.46 1.46 0 0 0 1.238-.672l6.548-9.178c.596-.94-.1-2.15-1.237-2.15zm-8.776 10c-.27.553-.873 1-1.35 1s-.648-.447-.38-1 .873-1 1.35-1 .65.447.38 1zM30.64 39H23.91a1.46 1.46 0 0 0-1.237.672l-6.548 9.178c-.596.94.1 2.15 1.237 2.15h6.727a1.46 1.46 0 0 0 1.238-.672l6.548-9.178c.596-.94-.1-2.15-1.237-2.15zm-8.776 10c-.27.553-.873 1-1.35 1s-.648-.447-.38-1 .873-1 1.35-1 .65.447.38 1z"/><path fill="#EFC75E" d="M75 54h24.826c.104-1.32.174-2.652.174-4 0-9.168-2.48-17.754-6.787-25.14L75 54z"/><path d="M6.13 74a49.858 49.858 0 0 0 2.44 4h82.86a49.848 49.848 0 0 0 2.44-4H6.13zm24.25 22c6.025 2.572 12.655 4 19.62 4s13.595-1.428 19.62-4H30.38z" fill="#283E49"/><g fill="#394C56"><path d="M20.95 90.682A3.97 3.97 0 0 0 22 88a4 4 0 0 0-4-4 3.978 3.978 0 0 0-3.146 1.556 50.294 50.294 0 0 0 6.095 5.126z"/><circle cx="50" cy="88" r="4"/><circle cx="34" cy="88" r="4"/><path d="M82 84a4 4 0 0 0-4 4 3.97 3.97 0 0 0 1.05 2.682 50.294 50.294 0 0 0 6.096-5.126A3.98 3.98 0 0 0 82 84z"/><circle cx="66" cy="88" r="4"/></g><g fill="#70838D"><path d="M20.33 90.24A3.984 3.984 0 0 0 22 87a4 4 0 0 0-4-4c-1.544 0-2.87.885-3.536 2.166a50.162 50.162 0 0 0 5.865 5.074z"/><circle cx="34" cy="87" r="4"/><path d="M85.535 85.166C84.87 83.886 83.545 83 82 83a4 4 0 0 0-4 4c0 1.338.663 2.515 1.67 3.24a49.99 49.99 0 0 0 5.865-5.074z"/><circle cx="66" cy="87" r="4"/><circle cx="50" cy="87" r="4"/></g><path fill="#405561" d="M89.993 80c.493-.656.976-1.32 1.437-2H8.57c.462.68.945 1.344 1.438 2h79.985z"/><path fill="#CBA950" d="M75 93.294C88.853 85.277 98.494 70.814 99.826 54H75v39.294z"/></svg>