<svg xmlns="http://www.w3.org/2000/svg" width="100" height="100" viewBox="0 0 100 100"><path fill="#EFC75E" d="M50 0c27.614 0 50 22.386 50 50s-22.386 50-50 50S0 77.614 0 50 22.386 0 50 0z"/><path fill="#2B414D" d="M76 27H29a7 7 0 0 0-7 7v57.43A49.773 49.773 0 0 0 50 100c12.65 0 24.193-4.707 33-12.453V34a7 7 0 0 0-7-7z"/><path fill="#CCD0D2" d="M74 27H27a7 7 0 0 0-7 7v56a49.78 49.78 0 0 0 30 10c11.714 0 22.478-4.04 31-10.785V34a7 7 0 0 0-7-7z"/><path fill="#324D5B" d="M71 25H25a7 7 0 0 0-7 7v56.413C26.67 95.645 37.826 100 50 100c10.375 0 20.01-3.16 28-8.57V32a7 7 0 0 0-7-7z"/><path fill="#2D4552" d="M18 32v56.413c.968.808 1.972 1.57 3 2.305v-58.72a7 7 0 0 1 7-7h-3a7 7 0 0 0-7 7z"/><path fill="#99A6AD" d="M53.077 65.132h4.135c-1.61-2.124-4.045-3.84-6.89-4.48a16.89 16.89 0 0 1 2.755 4.48m1.438 6.702h5.15a12.12 12.12 0 0 0-1.58-5.375l-4.51.006a19.3 19.3 0 0 1 .94 5.368m-.94 6.694l4.51.006a12.112 12.112 0 0 0 1.58-5.374h-5.15a19.215 19.215 0 0 1-.94 5.368m-.498 1.335a16.94 16.94 0 0 1-2.754 4.48c2.844-.643 5.278-2.358 6.89-4.48h-4.136zm-1.433 0H48.16v4.796c1.42-1.268 2.617-2.906 3.484-4.797m1.553-6.703H48.16v5.374h4.02c.598-1.678.95-3.48 1.017-5.374m-1.018-6.7h-4.02v5.375h5.037a17.78 17.78 0 0 0-1.018-5.374m-.536-1.328c-.866-1.89-2.063-3.53-3.483-4.797v4.797h3.484zm-8.284 0h3.482v-4.797c-1.418 1.268-2.616 2.906-3.482 4.797m-1.553 6.702h5.036V66.46h-4.02a17.81 17.81 0 0 0-1.016 5.374m1.017 6.7h4.02V73.16h-5.037c.066 1.894.42 3.696 1.017 5.373m.536 1.33c.865 1.89 2.063 3.528 3.482 4.796v-4.797H43.36zm-1.433 0h-4.135c1.61 2.122 4.045 3.838 6.89 4.48a16.89 16.89 0 0 1-2.755-4.48M40.49 73.16h-5.152a12.103 12.103 0 0 0 1.58 5.374l4.51-.006a19.222 19.222 0 0 1-.94-5.368m.94-6.694l-4.51-.006a12.107 12.107 0 0 0-1.58 5.375h5.15c.064-1.89.39-3.697.94-5.37m-3.636-1.333h4.135a16.843 16.843 0 0 1 2.755-4.48c-2.845.64-5.28 2.356-6.89 4.48m-3.79 7.365c0-7.452 6.045-13.494 13.5-13.494S61 65.045 61 72.497c0 7.453-6.044 13.495-13.498 13.495-7.455 0-13.5-6.042-13.5-13.495M68 38H28a1 1 0 0 0-1 1v2a1 1 0 0 0 1 1h40a1 1 0 0 0 1-1v-2a1 1 0 0 0-1-1zm-5 8H33a1 1 0 0 0-1 1v2a1 1 0 0 0 1 1h30a1 1 0 0 0 1-1v-2a1 1 0 0 0-1-1z"/></svg>