<svg xmlns="http://www.w3.org/2000/svg" width="100" height="100" viewBox="0 0 100 100"><path fill="#324D5B" d="M50 0c27.614 0 50 22.386 50 50s-22.386 50-50 50S0 77.614 0 50 22.386 0 50 0z"/><path fill="#475F6C" d="M95.16 71.476C83.17 66.196 67.57 63 50.5 63c-17.46 0-33.39 3.34-45.488 8.837C13.12 88.507 30.216 100 50 100c19.927 0 37.126-11.658 45.16-28.524z"/><path fill="#ccc" d="M70.91 66.767l-17.365-9.95L62.995 51 50 43.004 37.005 51l9.813 6.04-16.975 9.727a1.42 1.42 0 0 0 0 2.468L50.377 81 70.91 69.234a1.42 1.42 0 0 0 0-2.467zM41.067 51L50 45.67 58.934 51 50 56.33 41.066 51zm9.31 26.75L33.093 68l16.455-9.282.453.28.813-.502L67.663 68l-17.286 9.75z"/><path fill="#F2F1EF" d="M75.732 75.97l-23-48.96a1.998 1.998 0 0 0-.91-.825 1.996 1.996 0 0 0-3.47-.317c-.44.15-.833.448-1.084.884l-23 48.497a2 2 0 1 0 3.464 2L48 34.513V83a2 2 0 0 0 4 0V34.847L72.268 77.99c.553.966 1.775 1.297 2.732.74s1.284-1.794.732-2.76z"/><path fill="#EFC75E" d="M50 18a5 5 0 1 1 0 10 5 5 0 0 1 0-10z"/><path d="M30.13 54.98l.857-1.827C21.357 46.803 15 35.897 15 23.5c0-3.75.585-7.362 1.663-10.755a50.86 50.86 0 0 0-2.788 2.707A37.63 37.63 0 0 0 13 23.5c0 13.198 6.824 24.795 17.13 31.48zm30.82-18.987l.876 1.862C66.193 34.375 69 29.02 69 23c0-10.493-8.507-19-19-19s-19 8.507-19 19c0 6.02 2.807 11.374 7.174 14.855l.875-1.862C35.352 32.873 33 28.213 33 23c0-9.39 7.61-17 17-17s17 7.61 17 17c0 5.214-2.353 9.874-6.05 12.993zM76 23c0 8.83-4.41 16.617-11.138 21.316l.868 1.848C73.136 41.127 78 32.632 78 23c0-6.993-2.57-13.382-6.81-18.29a49.842 49.842 0 0 0-4.93-1.99C72.196 7.483 76 14.795 76 23zM34.27 46.164l.87-1.848C28.41 39.616 24 31.83 24 23c0-8.204 3.804-15.516 9.74-20.28a49.842 49.842 0 0 0-4.932 1.99A27.88 27.88 0 0 0 22 23c0 9.632 4.865 18.127 12.27 23.164zm53.126-29.34a49.795 49.795 0 0 0-2.683-2.792A35.504 35.504 0 0 1 86 23.5c0 12.724-6.698 23.878-16.756 30.146l.857 1.825C80.84 48.875 88 37.026 88 23.5c0-2.28-.215-4.507-.604-6.675zM50 14a9 9 0 0 1 9 9c0 1.957-.63 3.762-1.69 5.238l.946 2.015A10.947 10.947 0 0 0 61 23c0-6.075-4.925-11-11-11s-11 4.925-11 11c0 2.782 1.04 5.316 2.745 7.253l.946-2.015A8.946 8.946 0 0 1 41 23a9 9 0 0 1 9-9z" fill="#315F73"/><path fill="#D7B354" d="M51 26a5 5 0 0 1-5-5c0-.397.058-.778.146-1.15A4.95 4.95 0 0 0 45 23a4.992 4.992 0 0 0 9.854 1.15C53.938 25.27 52.562 26 51 26z"/></svg>