<svg xmlns="http://www.w3.org/2000/svg" width="100" height="100" viewBox="0 0 100 100"><path fill="#EDEDED" d="M50 0c27.614 0 50 22.386 50 50s-22.386 50-50 50S0 77.614 0 50 22.386 0 50 0z"/><path fill="#324D5B" d="M71 52a9 9 0 1 0 0 18 9 9 0 0 0 0-18zm-46 0a9 9 0 1 0 0 18 9 9 0 0 0 0-18z"/><path fill="#B5BCC0" d="M71 56c-2.762 0-5 2.238-5 5s2.238 5 5 5 5-2.238 5-5-2.238-5-5-5zm-46 0c-2.762 0-5 2.238-5 5s2.238 5 5 5 5-2.238 5-5-2.238-5-5-5z"/><path fill="#E2574C" d="M86.97 61.564l.037-.088c0-8.844-7.017-17.154-15.748-17.496H55.735s-1.156-.515-1.74 2.276v2.96c-.036.176-.038.357-.007.524.112.6.554 1.036 1.31 1.295 1.66.556 2.684 1.74 2.735 3.508a4.224 4.224 0 0 1-1.145 3.038 4.205 4.205 0 0 1-2.95 1.333l-.127.057h-5.53l-.05-.02c-5.612 0-10.18-4.213-10.213-9.548l3.464-14.796a1.324 1.324 0 0 0-1.29-1.625h-7.198s-1.15-.51-3.25 5.73l-1.704 5.353c-1.54 0-6.24.276-10.433 4.467-.5.5-.774 1.047-.415 1.658l7.262 12.743 9.38.07H85.69c.73 0 1.322-.596 1.322-1.327l-.044-.11z"/><path fill="#EE7269" d="M66.5 53h9a1.5 1.5 0 0 0 0-3h-9a1.5 1.5 0 0 0 0 3zm9 1h-9a1.5 1.5 0 0 0 0 3h9a1.5 1.5 0 0 0 0-3z"/><path fill="#324D5B" d="M37.984 32.982v-2.826c0-1.34.838-2.18 2.173-2.18H44.7c.73 0 1.323-.782 1.323-1.516s-.592-1.452-1.323-1.452h-4.662l-.026.01a5.077 5.077 0 0 0-5.017 5.075v2.89h2.99zM27 32c2.762 0 5 2.015 5 4.5S29.762 41 27 41v-9z"/><path fill="#EFC75E" d="M31 47a3 3 0 1 1 0 6 3 3 0 0 1 0-6z"/><path fill="#D5D5D5" d="M95.828 70H4.172C11.89 87.656 29.5 100 50 100s38.11-12.344 45.828-30z"/><path d="M55.3 51.036c1.66.556 2.684 1.74 2.735 3.508.022.693-.14 1.36-.435 1.97a4.223 4.223 0 0 0 2.435-3.97c-.052-1.768-1.076-2.952-2.734-3.508-.757-.26-1.198-.694-1.31-1.295a1.36 1.36 0 0 1 .007-.523v-2.96l.066-.277h-.327s-1.156-.514-1.74 2.277v2.96c-.036.176-.038.357-.007.524.112.602.553 1.037 1.31 1.296zm31.707 10.44L86.984 61h-51.15l-9.38-.066-7.262-12.744a1.04 1.04 0 0 1-.062-1c-.51.396-1.02.84-1.523 1.342-.5.5-.774 1.047-.415 1.658l7.262 12.743 9.38.067H85.69c.73 0 1.322-.596 1.322-1.327l-.044-.108.037-.088z" fill="#CB4E44"/><path fill="#324D5B" d="M54.5 36h14a4.5 4.5 0 0 1 0 9h-14a4.5 4.5 0 0 1 0-9z"/><path d="M75.5 56h-9c-.652 0-1.2-.42-1.408-1a1.483 1.483 0 0 0-.092.5 1.5 1.5 0 0 0 1.5 1.5h9a1.5 1.5 0 0 0 1.5-1.5c0-.176-.036-.343-.092-.5-.207.58-.756 1-1.408 1zm0-4h-9c-.652 0-1.2-.42-1.408-1a1.483 1.483 0 0 0-.092.5 1.5 1.5 0 0 0 1.5 1.5h9a1.5 1.5 0 0 0 1.5-1.5c0-.176-.036-.343-.092-.5-.207.58-.756 1-1.408 1z" fill="#D1645C"/><path fill="#2D4552" d="M29 32.38a5.438 5.438 0 0 0-2-.38v9c.712 0 1.387-.138 2-.38v-8.24z"/><path fill="#CB4E44" d="M31 47a3 3 0 1 1 0 6 3 3 0 0 1 0-6m0-1c-2.206 0-4 1.794-4 4s1.794 4 4 4 4-1.794 4-4-1.794-4-4-4z"/><path fill="#2B424D" d="M68.5 42h-14c-1.957 0-3.604-1.256-4.225-3A4.47 4.47 0 0 0 50 40.5a4.5 4.5 0 0 0 4.5 4.5h14a4.5 4.5 0 0 0 4.5-4.5c0-.53-.108-1.03-.275-1.5-.62 1.744-2.268 3-4.225 3z"/></svg>