<svg xmlns="http://www.w3.org/2000/svg" width="100" height="100" viewBox="0 0 100 100"><path fill="#3DB39E" d="M50 0c27.614 0 50 22.386 50 50s-22.386 50-50 50S0 77.614 0 50 22.386 0 50 0z"/><path fill="#37A18E" d="M50.19 41.94a1.99 1.99 0 0 1-2.437-1.4l-6.69-24.877a1.98 1.98 0 0 1 1.406-2.427L70.363 5.79a50.18 50.18 0 0 1 24.07 24.34L50.188 41.94zM28 71c-3.01 0-5.81-.896-8.158-2.423l-3.487 3.487a3.148 3.148 0 1 1-4.45-4.45l3.494-3.497A14.907 14.907 0 0 1 13 56c0-8.284 6.716-15 15-15s15 6.716 15 15-6.716 15-15 15z"/><path fill="#324D5B" d="M51.19 40.94a1.99 1.99 0 0 1-2.437-1.4l-6.69-24.877a1.98 1.98 0 0 1 1.406-2.427L71.363 4.79a50.18 50.18 0 0 1 24.07 24.34L51.188 40.94z"/><path fill="#F2F1EF" d="M31 68c-3.01 0-5.81-.896-8.158-2.423l-3.487 3.487a3.148 3.148 0 1 1-4.45-4.45l3.494-3.497A14.907 14.907 0 0 1 16 53c0-8.284 6.716-15 15-15s15 6.716 15 15-6.716 15-15 15z"/><path fill="#9B481A" d="M31 42c6.075 0 11 4.925 11 11s-4.925 11-11 11-11-4.925-11-11 4.925-11 11-11z"/><path fill="#E4E7E7" d="M62.905 98.31l-13.62-23.563a2.017 2.017 0 0 1 .74-2.76l36.656-20.716a2.024 2.024 0 0 1 2.764.74l7.984 13.814C92.145 81.667 79.158 93.98 62.905 98.31z"/><path d="M97.323 65.643l-1.02-1.766-39.99 23.026 1.02 1.767zM52.23 79.838l1.02 1.766 39.99-23.027-1.02-1.765zm38.615-1.047a50.26 50.26 0 0 0 2.396-3.732l-32.844 18.91 1.02 1.768 29.43-16.945z" fill="#D7D8D8"/><path fill="#CCD0D2" d="M52.908 67.735c-.49-.828-1.473-1.167-2.198-.758s-.917 1.413-.43 2.24l2.275 3.855c.49.827 1.474 1.166 2.198.757.726-.41.918-1.414.43-2.242l-2.275-3.853zm5.254-2.966c-.49-.83-1.473-1.168-2.198-.758-.726.408-.918 1.412-.43 2.24l2.275 3.854c.488.827 1.472 1.166 2.197.757.726-.41.918-1.413.43-2.24L58.16 64.77zm5.254-2.968c-.49-.828-1.474-1.167-2.198-.757-.726.41-.918 1.412-.43 2.24l2.275 3.854c.49.827 1.473 1.165 2.198.756s.92-1.413.43-2.24l-2.274-3.854zm5.254-2.967c-.49-.827-1.474-1.167-2.198-.757-.726.41-.918 1.412-.43 2.24l2.275 3.854c.488.828 1.473 1.166 2.198.757s.917-1.414.43-2.24l-2.275-3.855zm5.254-2.967c-.49-.827-1.474-1.167-2.2-.757-.724.41-.916 1.413-.427 2.24l2.274 3.855c.49.828 1.474 1.167 2.2.758.725-.41.916-1.413.428-2.24l-2.274-3.855zm5.254-2.966c-.49-.828-1.474-1.168-2.2-.758-.724.41-.916 1.412-.427 2.24l2.275 3.854c.488.828 1.473 1.167 2.198.758.726-.41.917-1.413.43-2.24l-2.275-3.854zm7.528.887l-2.275-3.855c-.487-.828-1.472-1.167-2.197-.758-.725.41-.917 1.413-.428 2.24l2.274 3.854c.487.83 1.472 1.168 2.197.76.726-.41.917-1.414.43-2.24z"/><path fill="#8B4117" d="M29 45c6.075 0 11 4.925 11 11 0 1.605-.352 3.126-.97 4.502A10.954 10.954 0 0 0 42 53c0-6.075-4.925-11-11-11-4.47 0-8.31 2.67-10.03 6.5A10.96 10.96 0 0 1 29 45z"/><path fill="#D0D3D3" d="M50.857 73.747a2.01 2.01 0 0 1 .29-2.392l-1.12.633a2.017 2.017 0 0 0-.74 2.76L62.904 98.31c.642-.17 1.27-.376 1.9-.572l-13.948-23.99z"/><path d="M54.88 80.665L53.854 78.9l-1.625.938 1.02 1.766zm8.204 14.11l-1.025-1.763-1.664.957 1.02 1.765zm-4.102-7.054l-1.025-1.763-1.645.946 1.02 1.767z" fill="#B9BCBE"/><path d="M65.69 65.655l-.146-.248-2.612 1.508.132.224c.468.79 1.385 1.126 2.1.798l.202-.117c.633-.445.788-1.38.324-2.165zm-12.415 8.128c.472.266 1.025.302 1.48.046.725-.41.917-1.414.428-2.242l-.088-.148-2.38 1.374.56.97zm4.535-3.678c.49.827 1.473 1.166 2.198.757.726-.41.918-1.413.43-2.24l-.118-.198-2.612 1.508.102.173zM86.706 53.79l-.265-.448-2.61 1.508.25.422c.327.557.878.885 1.425.92l1.315-.76c.23-.478.208-1.097-.114-1.643zm-15.762 8.898l-.176-.298-2.612 1.508.16.273c.41.693 1.162 1.035 1.822.894l.7-.404c.443-.49.51-1.29.106-1.972zm10.508-5.932l-.234-.397-2.612 1.507.22.372c.35.592.953.928 1.534.924l1.156-.667c.28-.49.28-1.157-.064-1.74zm-5.254 2.967l-.205-.35-2.612 1.51.19.322c.375.634 1.04.978 1.655.922l.982-.567c.34-.494.358-1.215-.01-1.837z" fill="#B7BBBD"/><path fill="#324D5B" d="M55.57.316c-1.885 3.434-3.762 6.73-1.588 10.695l1.94-1.18c-1.79-3.262-.06-5.967 1.74-9.246A51.01 51.01 0 0 0 55.57.316z"/><path d="M72.426 22.088c.145.542.7.864 1.24.72l2.938-.79c.54-.146.86-.704.717-1.246l-.786-2.947a1.013 1.013 0 0 0-1.24-.72l-2.938.79a1.02 1.02 0 0 0-.717 1.247l.786 2.946zM59.56 17.126l-.788-2.947a1.013 1.013 0 0 0-1.24-.72l-2.938.79a1.02 1.02 0 0 0-.717 1.245l.787 2.946c.145.544.7.865 1.24.72l2.938-.79c.54-.144.86-.702.717-1.244zm15.662-4.21l-.787-2.948a1.013 1.013 0 0 0-1.24-.72l-2.938.79c-.54.146-.86.704-.717 1.246l.787 2.947c.145.543.7.865 1.24.72l2.938-.79c.54-.145.86-.703.717-1.245zm12.867 4.96c.105.403.438.68.823.74-.3-.373-.61-.74-.92-1.103l.096.364zm-4.966-2.875l-2.938.79c-.54.146-.86.704-.717 1.246l.786 2.947c.146.542.7.864 1.24.72l2.94-.79c.54-.147.86-.704.715-1.246l-.785-2.947a1.013 1.013 0 0 0-1.24-.72zm-36.292 5.547c.146.542.7.864 1.24.72l2.94-.79c.54-.147.86-.704.716-1.247l-.787-2.947a1.014 1.014 0 0 0-1.24-.72l-2.938.79a1.02 1.02 0 0 0-.717 1.246l.787 2.947zm30.54-11.37l.786 2.948c.146.542.7.864 1.24.72l2.94-.79.128-.064a50.255 50.255 0 0 0-4.895-3.696.998.998 0 0 0-.198.884zM53.11 28.335c.54-.145.86-.703.715-1.245l-.786-2.947a1.015 1.015 0 0 0-1.243-.72l-2.937.79a1.02 1.02 0 0 0-.717 1.245l.787 2.947c.146.542.7.865 1.24.72l2.94-.79zm38.056-2.862l-.787-2.946a1.013 1.013 0 0 0-1.242-.72L66.622 27.86a1.02 1.02 0 0 0-.717 1.246l.787 2.947c.145.542.7.864 1.24.72l22.517-6.054a1.02 1.02 0 0 0 .716-1.248zm-26.572-1.28c.145.544.7.866 1.24.72l2.938-.79c.54-.144.862-.702.717-1.244L68.7 19.93a1.012 1.012 0 0 0-1.24-.718l-2.938.79c-.54.145-.86.702-.717 1.245l.787 2.946zm-10.698 7.09l-2.937.788a1.02 1.02 0 0 0-.718 1.246l.787 2.946c.144.542.7.864 1.24.72l2.937-.79c.54-.146.86-.703.717-1.246L55.137 32a1.013 1.013 0 0 0-1.24-.72zm2.867-4.983c.145.54.7.863 1.24.718l2.938-.79c.542-.146.862-.703.718-1.245l-.787-2.947a1.013 1.013 0 0 0-1.24-.72l-2.937.79c-.54.146-.862.704-.717 1.246l.787 2.947zM67.39 15.02l-.786-2.947a1.014 1.014 0 0 0-1.24-.72l-2.94.79c-.54.146-.86.703-.715 1.246l.785 2.946c.146.542.7.864 1.24.72l2.94-.79c.54-.146.86-.704.716-1.246zm-8.53 19.137c.146.542.7.864 1.242.72l2.937-.79c.54-.146.86-.703.716-1.246l-.787-2.946a1.014 1.014 0 0 0-1.242-.72l-2.938.79c-.54.146-.86.704-.716 1.246l.786 2.947z" fill="#2D4552"/><path d="M73.426 21.088c.145.542.7.864 1.24.72l2.938-.79c.54-.146.86-.704.717-1.246l-.786-2.947a1.013 1.013 0 0 0-1.24-.72l-2.938.79a1.02 1.02 0 0 0-.717 1.247l.786 2.946zm2.796-9.173l-.787-2.947a1.013 1.013 0 0 0-1.24-.72l-2.938.79c-.54.146-.86.704-.717 1.246l.787 2.947c.145.543.7.865 1.24.72l2.938-.79c.54-.145.86-.703.717-1.245zm2.936-.79c.146.542.7.864 1.24.72l1.45-.39a50.158 50.158 0 0 0-3.26-2.465l.57 2.135zm-31.326 8.422c.146.542.7.864 1.24.72l2.94-.79c.54-.147.86-.704.716-1.247l-.787-2.947a1.014 1.014 0 0 0-1.24-.72l-2.938.79a1.02 1.02 0 0 0-.717 1.246l.787 2.947zm36.895-5.502a.99.99 0 0 0-.603-.044l-2.938.79c-.54.146-.86.704-.717 1.246l.786 2.947c.146.542.7.864 1.24.72l2.94-.79c.54-.147.86-.704.715-1.246l-.785-2.947-.062-.125-.576-.55zm-24.168 2.08l-.788-2.946a1.013 1.013 0 0 0-1.24-.72l-2.938.79a1.02 1.02 0 0 0-.717 1.245l.787 2.946c.145.544.7.865 1.24.72l2.938-.79c.54-.144.86-.702.717-1.244zm31.606 8.347l-.607-2.275c-.32-.476-.655-.94-.99-1.405a1.005 1.005 0 0 0-.432.015L67.622 26.86a1.02 1.02 0 0 0-.717 1.246l.787 2.947c.145.542.7.864 1.24.72l22.517-6.054a1.02 1.02 0 0 0 .716-1.248zm-26.572-1.28c.145.544.7.866 1.24.72l2.938-.79c.54-.144.862-.702.717-1.244L69.7 18.93a1.012 1.012 0 0 0-1.24-.718l-2.938.79c-.54.145-.86.702-.717 1.245l.787 2.946zm2.797-9.172l-.786-2.947a1.014 1.014 0 0 0-1.24-.72l-2.94.79c-.54.146-.86.703-.715 1.246l.785 2.946c.146.542.7.864 1.24.72l2.94-.79c.54-.146.86-.704.716-1.246zM54.897 30.28l-2.937.79a1.02 1.02 0 0 0-.718 1.246l.787 2.946c.144.542.7.864 1.24.72l2.937-.79c.54-.146.86-.703.717-1.246L56.137 31a1.013 1.013 0 0 0-1.24-.72zm-3.724-2.156l2.938-.79c.54-.145.86-.703.716-1.245l-.786-2.947a1.015 1.015 0 0 0-1.242-.72l-2.937.79a1.02 1.02 0 0 0-.716 1.245l.787 2.947c.146.542.702.865 1.242.72zm8.688 5.033c.146.542.7.864 1.242.72l2.937-.79c.54-.146.86-.703.716-1.246l-.787-2.946a1.014 1.014 0 0 0-1.242-.72l-2.938.79c-.54.146-.86.704-.716 1.246l.786 2.947zM57.763 25.3c.145.54.7.863 1.24.718l2.938-.79c.542-.146.862-.703.718-1.245l-.787-2.947a1.013 1.013 0 0 0-1.24-.72l-2.937.79c-.54.146-.862.704-.717 1.246l.787 2.947z" fill="#475F6C"/></svg>